<mxfile host="app.diagrams.net" modified="2024-04-16T01:35:04.158Z" agent="Mozilla/5.0 (Windows NT 10.0; Win64; x64) AppleWebKit/537.36 (KHTML, like Gecko) Chrome/122.0.0.0 Safari/537.36" version="24.2.5" etag="aJEEcZYPmbTI7OICBZ3I" type="github">
  <diagram name="第 1 页" id="FXLpEIukr8Jnh23styIx">
    <mxGraphModel>
      <root>
        <mxCell id="0" />
        <mxCell id="1" parent="0" />
      </root>
    </mxGraphModel>
  </diagram>
</mxfile>
